# xmcd
#
# Track frame offsets: 
#        150
#        18245
#        33244
#        50633
#        72102
#        90657
#        102086
#        120235
#        139339
#        145338
#        160291
#        177480
#        193372
#        202772
#
# Disc length: 2896 seconds
#
# Revision: 2
# Processed by: cddbd v1.5.2PL0 Copyright (c) Steve Scherf et al.
# Submitted via: ExactAudioCopy v1.0b6
#
DISCID=c10b4e0e
DTITLE=Mercury Rev - The Secret Migration [2005 V2 CD]
DYEAR=2005
DGENRE=Rock
TTITLE0=Secret For A Song
TTITLE1=Across Yer Ocean
TTITLE2=Diamonds
TTITLE3=Black Forest (Lorelei)
TTITLE4=Vermillion
TTITLE5=In The Wilderness
TTITLE6=In A Funny Way
TTITLE7=My Love
TTITLE8=Moving On
TTITLE9=The Climbing Rose
TTITLE10=Arise
TTITLE11=First-Time Mother's Joy (Flying)
TTITLE12=Down Poured The Heavens
TTITLE13=Mirror For A Bell
EXTD=YEAR: 2005
EXTT0=
EXTT1=
EXTT2=
EXTT3=
EXTT4=
EXTT5=
EXTT6=
EXTT7=
EXTT8=
EXTT9=
EXTT10=
EXTT11=
EXTT12=
EXTT13=
PLAYORDER=
